<!DOCTYPE svg PUBLIC "-//W3C//DTD SVG 1.1//EN" "http://www.w3.org/Graphics/SVG/1.1/DTD/svg11.dtd">
<!-- Uploaded to: SVG Repo, www.svgrepo.com, Transformed by: SVG Repo Mixer Tools -->
<svg fill="#D9083C" height="800px" width="800px" version="1.1" id="Layer_1" xmlns="http://www.w3.org/2000/svg" xmlns:xlink="http://www.w3.org/1999/xlink" viewBox="0 0 512 512" xml:space="preserve">
<g id="SVGRepo_bgCarrier" stroke-width="0"/>
<g id="SVGRepo_tracerCarrier" stroke-linecap="round" stroke-linejoin="round"/>
<g id="SVGRepo_iconCarrier"> <g> <g> <path d="M443.037,0H68.963c-5.77,0-10.449,4.679-10.449,10.449v491.102c0,5.77,4.679,10.449,10.449,10.449h374.073 c5.77,0,10.449-4.679,10.449-10.449V10.449C453.486,4.679,448.807,0,443.037,0z M432.588,491.102H79.412V20.898h353.176V491.102z"/> </g> </g> <g> <g> <path d="M404.372,38.657H107.621c-5.77,0-10.449,4.679-10.449,10.449v413.78c0,5.77,4.679,10.449,10.449,10.449h296.751 c5.771,0,10.449-4.678,10.449-10.449V49.106C414.821,43.336,410.142,38.657,404.372,38.657z M393.923,452.437H118.07V59.555 h275.853V452.437z"/> </g> </g> <g> <g> <path d="M313.681,144.83H198.743c-5.77,0-10.449,4.679-10.449,10.449v25.078c0,5.77,4.679,10.449,10.449,10.449h114.939 c5.771,0,10.449-4.678,10.449-10.449v-25.078C324.13,149.509,319.451,144.83,313.681,144.83z M303.233,169.908h-94.041v-4.18 h94.041V169.908z"/> </g> </g> <g> <g> <path d="M313.681,316.193H198.743c-5.77,0-10.449,4.679-10.449,10.449V355.9c0,5.77,4.679,10.449,10.449,10.449h114.939 c5.771,0,10.449-4.678,10.449-10.449v-29.257C324.13,320.872,319.451,316.193,313.681,316.193z M303.233,345.451h-94.041v-8.359 h94.041V345.451z"/> </g> </g> <g> <g> <path d="M354.432,199.165H157.992c-5.77,0-10.449,4.679-10.449,10.449v29.257c0,5.77,4.679,10.449,10.449,10.449h196.441 c5.771,0,10.449-4.678,10.449-10.449v-29.257C364.882,203.844,360.202,199.165,354.432,199.165z M343.983,228.422H168.441v-8.359 h175.543V228.422z"/> </g> </g> <g> <g> <path d="M354.432,257.679H157.992c-5.77,0-10.449,4.679-10.449,10.449v29.257c0,5.77,4.679,10.449,10.449,10.449h196.441 c5.771,0,10.449-4.678,10.449-10.449v-29.257C364.882,262.358,360.202,257.679,354.432,257.679z M343.983,286.936H168.441v-8.359 h175.543V286.936z"/> </g> </g> <g> <g> <path d="M303.288,408.903H153.931c-5.77,0-10.449,4.679-10.449,10.449c0,5.77,4.679,10.449,10.449,10.449h149.358 c5.77,0,10.448-4.679,10.448-10.449C313.737,413.582,309.058,408.903,303.288,408.903z"/> </g> </g> <g> <g> <path d="M358.493,408.903h-23.714c-5.77,0-10.449,4.679-10.449,10.449c0,5.77,4.679,10.449,10.449,10.449h23.714 c5.77,0,10.449-4.679,10.449-10.449C368.942,413.582,364.263,408.903,358.493,408.903z"/> </g> </g> </g>
</svg>